<svg width="20" height="18" viewBox="0 0 20 18" fill="none" xmlns="http://www.w3.org/2000/svg">
<path fill-rule="evenodd" clip-rule="evenodd" d="M7.12803 1.44817C7.59539 1.36219 8.06699 1.30103 8.54082 1.26497C8.64802 1.25677 8.72263 1.23897 8.76883 1.16357C8.84683 1.03677 8.98563 0.987974 9.17883 0.973574C9.69883 0.934774 10.2146 0.931975 10.7358 0.967775C10.9872 0.985175 11.1548 1.04897 11.2512 1.21437C11.2892 1.27937 11.3546 1.30337 11.4526 1.31037C11.6572 1.32477 11.8606 1.34677 12.0634 1.37377C12.3268 1.40897 12.5876 1.45357 12.861 1.49837C12.8138 1.33937 12.7404 1.20477 12.6578 1.07257C12.3422 0.567975 11.836 0.224174 11.083 0.0847745C10.5172 -0.0198255 9.94462 -0.0106255 9.37103 0.0225745C9.01202 0.0433745 8.66943 0.114574 8.34963 0.237774C7.68323 0.493774 7.35543 0.930975 7.12783 1.44817H7.12803ZM0.396225 1.90937C0.622659 1.99491 0.835167 2.11353 1.02683 2.26137C1.44583 2.58197 1.73423 2.96437 2.00143 3.35577C2.29843 3.79057 2.53223 4.24477 2.75263 4.70497C2.79643 4.67837 2.79963 4.64657 2.80903 4.61577C2.92143 4.25177 3.05343 3.89157 3.22243 3.53877C3.52223 2.91377 3.92342 2.33577 4.65383 1.91117C4.72723 1.86857 4.72123 1.83877 4.66703 1.78857C4.43563 1.57417 4.18583 1.37257 3.89443 1.20057C3.66403 1.06477 3.39923 0.995974 3.09823 1.00097C2.43743 1.01177 1.83623 1.16757 1.26623 1.39637C0.937825 1.52817 0.632225 1.68237 0.396225 1.90937ZM9.09003 1.45797L9.02163 1.46797C9.01143 1.46577 9.00083 1.46077 8.99103 1.46117C8.12543 1.50857 7.26663 1.58477 6.43303 1.77157C5.54023 1.97157 4.85123 2.36017 4.37243 2.94317C3.99123 3.40757 3.78283 3.92077 3.59283 4.43717C3.39423 4.97677 3.25623 5.52677 3.13363 6.07797C2.93563 6.96777 2.78523 7.86237 2.64363 8.75737C2.54199 9.41011 2.44759 10.0639 2.36043 10.7188C2.23463 11.648 2.12283 12.5778 2.11443 13.5128C2.10663 14.333 2.13183 15.1508 2.48043 15.9426C2.70903 16.4618 3.10243 16.8886 3.76443 17.173C4.45043 17.4678 5.20123 17.627 5.97003 17.7468C7.10863 17.9242 8.26562 17.9826 9.42683 17.996C10.6748 18.0104 11.9218 17.9886 13.16 17.8576C14.0678 17.7616 14.958 17.6156 15.8004 17.3406C16.5662 17.0906 17.125 16.701 17.429 16.122C17.731 15.5474 17.8342 14.948 17.8694 14.3416C17.9488 12.9716 17.7664 11.6104 17.5748 10.2504C17.4342 9.25217 17.2816 8.25477 17.097 7.25997C16.984 6.65157 16.8642 6.04437 16.7068 5.44137C16.5238 4.74137 16.3068 4.04837 15.931 3.38677C15.4732 2.58037 14.7032 2.01097 13.534 1.76677C12.0812 1.46357 10.594 1.39017 9.09003 1.45797ZM18.241 9.89297C18.2416 9.97237 18.245 10.0518 18.273 10.1292L18.3652 10.7674C18.352 10.8078 18.3586 10.8458 18.3852 10.8974C18.4068 10.8438 18.454 10.8134 18.4392 10.7686L18.7192 9.76957C18.7386 9.73277 18.757 9.69597 18.7468 9.65557C18.801 9.56437 18.8134 9.46557 18.8468 9.37057C19.05 8.79517 19.1884 8.21057 19.3188 7.62497C19.4624 6.98057 19.5862 6.33357 19.7456 5.69117C19.9416 4.90117 20.0296 4.10717 19.9916 3.30617C19.9774 3.00977 19.958 2.71157 19.8484 2.40357C19.757 2.45537 19.677 2.49417 19.6072 2.54117C19.2852 2.75857 19.0568 3.02677 18.8522 3.30437C18.2694 4.09497 17.8912 4.94337 17.538 5.79837C17.52 5.84177 17.5304 5.88317 17.5406 5.92617C17.7234 6.70177 17.8562 7.48217 17.9818 8.26337C18.0692 8.80657 18.1546 9.34977 18.241 9.89297ZM0.0558251 2.61157C-0.00257486 2.78117 0.00042514 2.95457 2.514e-05 3.12737C-0.00197486 3.91237 0.115625 4.69017 0.256825 5.46737C0.379425 6.14277 0.549825 6.81157 0.715825 7.48117C0.875356 8.13162 1.0419 8.78032 1.21543 9.42717C1.38223 10.043 1.44243 10.6666 1.50583 11.2904C1.51043 11.336 1.49983 11.385 1.54343 11.4304C1.55183 11.4176 1.56263 11.4084 1.56383 11.3984C1.67738 10.4842 1.8078 9.57229 1.95503 8.66297C2.09863 7.77637 2.23563 6.88937 2.43803 6.00857C2.46463 5.89357 2.49743 5.78117 2.43763 5.66057C2.32083 5.42417 2.23263 5.18057 2.12023 4.94297C1.82283 4.31457 1.50623 3.69117 1.03143 3.11897C0.839225 2.88697 0.640225 2.65617 0.332425 2.49097C0.262425 2.44737 0.186425 2.36997 0.103025 2.39717C0.0336251 2.41997 0.0588251 2.51497 0.0454251 2.57837C0.0434251 2.58877 0.0520251 2.60037 0.0558251 2.61157ZM18.5958 1.36417C17.9455 1.13723 17.261 1.02424 16.5722 1.03017C16.3732 1.03045 16.1784 1.0877 16.0108 1.19517C15.7256 1.37777 15.5274 1.60657 15.3576 1.85057C15.3228 1.90057 15.3602 1.92077 15.4042 1.94717C15.5982 2.06278 15.7788 2.19955 15.9426 2.35497C16.506 2.89137 16.794 3.51557 17.0316 4.15557C17.104 4.35077 17.1686 4.54737 17.2452 4.76757C17.478 4.28877 17.7028 3.83417 17.9976 3.40077C18.356 2.87377 18.7416 2.35977 19.4136 1.99917L19.5008 1.95877L19.5764 1.92837C19.6464 1.90997 19.604 1.89137 19.5764 1.87277C19.5626 1.83277 19.5264 1.80477 19.4832 1.78017C19.4476 1.73077 19.3906 1.69757 19.3252 1.67057C19.1792 1.57117 19.0092 1.49857 18.8288 1.43777C18.7542 1.40817 18.686 1.36777 18.5958 1.36417Z" fill="white"/>
</svg>
